<?xml version="1.0" encoding="UTF-8"?>
<svg width="347px" height="349px" viewBox="0 0 347 349" version="1.1" xmlns="http://www.w3.org/2000/svg" xmlns:xlink="http://www.w3.org/1999/xlink">
    <title>Group 2</title>
    <g id="Symbols" stroke="none" stroke-width="1" fill="none" fill-rule="evenodd">
        <g id="Artboard" transform="translate(-1695.000000, -20.000000)" fill-rule="nonzero">
            <g id="Group-2" transform="translate(1695.000000, 20.000000)">
                <ellipse id="Oval" fill="#FFFFFF" cx="173.411642" cy="174.5" rx="173.411642" ry="174.5"></ellipse>
                <g id="login" transform="translate(53.000000, 55.000000)">
                    <path d="M52.1182944,22.1182944 L187.881706,22.1182944 C204.450248,22.1182944 217.881706,35.5497519 217.881706,52.1182944 L217.881706,187.881706 C217.881706,204.450248 204.450248,217.881706 187.881706,217.881706 L52.1182944,217.881706 C35.5497519,217.881706 22.1182944,204.450248 22.1182944,187.881706 L22.1182944,52.1182944 C22.1182944,35.5497519 35.5497519,22.1182944 52.1182944,22.1182944 Z" id="Rectangle" fill="#FFA41B" transform="translate(120.000000, 120.000000) rotate(75.000000) translate(-120.000000, -120.000000) "></path>
                    <path d="M52.1182944,22.1182944 L187.881706,22.1182944 C204.450248,22.1182944 217.881706,35.5497519 217.881706,52.1182944 L217.881706,187.881706 C217.881706,204.450248 204.450248,217.881706 187.881706,217.881706 L52.1182944,217.881706 C35.5497519,217.881706 22.1182944,204.450248 22.1182944,187.881706 L22.1182944,52.1182944 C22.1182944,35.5497519 35.5497519,22.1182944 52.1182944,22.1182944 Z" id="Rectangle" fill="#F84156" transform="translate(120.000000, 120.000000) scale(-1, 1) rotate(75.000000) translate(-120.000000, -120.000000) "></path>
                </g>
            </g>
        </g>
    </g>
</svg>