<?xml version="1.0" encoding="UTF-8"?>
<svg width="32px" height="32px" viewBox="0 0 32 32" version="1.1" xmlns="http://www.w3.org/2000/svg" xmlns:xlink="http://www.w3.org/1999/xlink">
    <title>github(1)</title>
    <g id="Mobile-Final" stroke="none" stroke-width="1" fill="none" fill-rule="evenodd">
        <g id="iPhone-11-Pro-Max" transform="translate(-222.000000, -2605.000000)" fill="#000000" fill-rule="nonzero">
            <g id="Social" transform="translate(160.000000, 2605.000000)">
                <g id="github(1)" transform="translate(62.000000, 0.000000)">
                    <path d="M11.6225808,25.9514723 C11.3379036,25.9868701 11.2135382,26.0760501 11.2492046,26.2182645 C11.2846842,26.3605412 11.4446225,26.4080914 11.7289262,26.3605412 C12.0136034,26.313178 12.1378754,26.2299807 12.1021156,26.1114479 C12.0668228,25.9810744 11.9068844,25.9276037 11.6225808,25.9514723 Z" id="Path"></path>
                    <path d="M10.3652076,25.951108 C10.0856386,25.951108 9.94594595,26.0211199 9.94594595,26.1622198 C9.94594595,26.3286074 10.0945415,26.3988211 10.3913656,26.3732644 C10.6709345,26.3732644 10.8108108,26.302849 10.8108108,26.1622198 C10.8108108,25.996034 10.6622152,25.9253495 10.3652076,25.951108 Z" id="Path"></path>
                    <path d="M8.66841536,25.6526843 C8.59913444,25.7793071 8.7119894,25.8653743 9.00670675,25.9116113 C9.26696597,25.9803321 9.43187277,25.9459414 9.50115368,25.8080163 C9.55329668,25.6816353 9.44044172,25.5898262 9.16286228,25.5319243 C8.90251191,25.48605 8.73778743,25.5257593 8.66841536,25.6526843 Z" id="Path"></path>
                    <path d="M30.2395932,1.76025284 C29.06594,0.586823917 27.6530904,0 25.9999498,0 L5.9999772,0 C4.34734742,0 2.93398702,0.586823917 1.76026087,1.76025284 C0.586826593,2.93390067 0,4.34725462 0,5.99994983 L0,26.0001231 C0,27.6528913 0.586826593,29.0660993 1.76026087,30.2395282 C2.93391405,31.4131761 4.34734742,32 5.9999772,32 L10.6666423,32 C10.9719498,32 11.2012952,31.9894923 11.3540219,31.9690608 C11.5066756,31.9480454 11.6593294,31.8577087 11.812202,31.6978317 C11.9651476,31.5382465 12.0413285,31.3055455 12.0413285,31.0000935 C12.0413285,30.9586466 12.03768,30.4859476 12.0308208,29.583237 C12.0237427,28.6802345 12.0203131,27.9650565 12.0203131,27.4371923 L11.5411176,27.5205969 C11.2355912,27.576054 10.8501625,27.6004989 10.3848313,27.5934938 C9.91971906,27.5864887 9.43694802,27.5380367 8.93702897,27.4477 C8.43681804,27.3572903 7.97170579,27.1490342 7.54110846,26.8229317 C7.11073004,26.4962455 6.80520369,26.0692986 6.62460237,25.5416533 L6.41619939,25.0621681 C6.27733704,24.7430707 6.05871823,24.3887289 5.76005108,24.0001642 C5.46138393,23.6110887 5.15936014,23.3471566 4.85383379,23.2082949 L4.7079663,23.1040938 C4.61084292,23.0346995 4.52057875,22.951003 4.43717377,22.8538801 C4.35391474,22.7564652 4.29145222,22.6591234 4.24978622,22.5622194 C4.20812022,22.4648046 4.24270811,22.3849025 4.35391474,22.3222214 C4.46512137,22.2598321 4.6663003,22.2288929 4.95810825,22.2288929 L5.37462232,22.2912821 C5.65249296,22.3467393 5.9960368,22.5132566 6.40598356,22.7911989 C6.81563843,23.0689223 7.15239605,23.4299774 7.41632937,23.8742911 C7.73593898,24.4438941 8.12100288,24.8776272 8.57261564,25.176293 C9.02386355,25.4752507 9.47883293,25.6245471 9.93708598,25.6245471 C10.395339,25.6245471 10.7911296,25.5898134 11.1246035,25.5206379 C11.4577126,25.4510247 11.7702441,25.3466047 12.0620521,25.207743 C12.1870501,24.2773039 12.5273832,23.5616151 13.0827596,23.0616983 C12.2911786,22.9782937 11.579427,22.8534422 10.9472858,22.6866331 C10.3155096,22.5198239 9.66264494,22.2491785 8.98912972,21.8740403 C8.31532261,21.498975 7.75637064,21.0340108 7.31190897,20.4781261 C6.86752027,19.9222415 6.50281505,19.1931262 6.21830413,18.2906345 C5.93364726,17.3876321 5.79128234,16.3458408 5.79128234,15.1654068 C5.79128234,13.484983 6.34009144,12.0541893 7.43727183,10.8737552 C6.92326952,9.60991661 6.97179473,8.19342496 7.58299338,6.62384246 C7.98578905,6.49877205 8.58312335,6.59261134 9.37470441,6.90514141 C10.1664314,7.21789039 10.7461069,7.48532507 11.1143147,7.70722653 C11.4825225,7.92920096 11.7775411,8.11687953 11.9998085,8.26982444 C13.2917464,7.90869642 14.6249855,7.72816889 15.9998905,7.72816889 C17.3747227,7.72816889 18.7081806,7.90869642 20.0001915,8.26982444 L20.7918456,7.7698347 C21.3337225,7.43636227 21.9725039,7.13083731 22.7087006,6.85318685 C23.4448242,6.57546342 24.0072058,6.49899096 24.3962831,6.62406137 C25.0210542,8.19364387 25.0769494,9.61013552 24.5625822,10.8739012 C25.6597626,12.0544811 26.2087177,13.4852019 26.2087177,15.1656257 C26.2087177,16.3462786 26.0663527,17.3915724 25.7816959,18.3010692 C25.4972579,19.210785 25.129415,19.940192 24.6776563,20.4887797 C24.2264084,21.0374404 23.6638079,21.498902 22.9902927,21.8741862 C22.3166315,22.2490326 21.6638398,22.5201887 21.0317717,22.6864871 C20.3997765,22.8532963 19.6880979,22.9786586 18.8964438,23.0620632 C19.6181924,23.6868314 19.9792491,24.6726548 19.9792491,26.0201169 L19.9792491,30.9994368 C19.9792491,31.2356403 20.013691,31.4264566 20.0831587,31.5723234 C20.1530642,31.7181173 20.2639789,31.8185239 20.4167056,31.8744918 C20.570089,31.9299489 20.7048651,31.9646096 20.8232228,31.9784009 C20.9415805,31.9923382 21.1113822,31.9993433 21.3336495,31.9993433 L26.0003147,31.9993433 C27.6529445,31.9993433 29.0663778,31.4125194 30.2395202,30.2388715 C31.4131734,29.0652237 32,27.6517968 32,25.9991745 L32,5.99994983 C32,4.34725462 31.4130275,2.93368176 30.2395932,1.76025284 Z" id="Path"></path>
                    <path d="M6.54131387,23.3942716 C6.45775921,23.4534117 6.46968662,23.5484226 6.57722165,23.6790548 C6.69687242,23.7977092 6.79235449,23.8156134 6.86410729,23.7323931 C6.94766195,23.6732531 6.93573453,23.5782422 6.82801118,23.4473604 C6.70861151,23.3406837 6.61306666,23.3227795 6.54131387,23.3942716 Z" id="Path"></path>
                    <path d="M5.63558691,22.5652533 C5.59520757,22.6825808 5.64238764,22.7830343 5.77719798,22.86635 C5.88494707,22.9502809 5.9728607,22.9337584 6.04008877,22.8164309 C6.08046811,22.6991034 6.03328803,22.5986499 5.8984777,22.514719 C5.76366736,22.4644483 5.6760371,22.4813224 5.63558691,22.5652533 Z" id="Path"></path>
                    <path d="M6.99383272,24.2524373 C6.89394765,24.3013593 6.89394765,24.3900174 6.99383272,24.5175345 C7.0936013,24.6454128 7.18766216,24.6796788 7.27648124,24.6206422 C7.37630806,24.5518005 7.37630806,24.4584978 7.27648124,24.3405794 C7.18789512,24.2132172 7.0936013,24.1833892 6.99383272,24.2524373 Z" id="Path"></path>
                    <path d="M7.83541177,25.1371185 C7.75134945,25.2149342 7.76988828,25.306773 7.89142062,25.4139098 C8.00329118,25.5301234 8.09667195,25.5447585 8.17136676,25.4572031 C8.24611062,25.3797444 8.22742466,25.2875996 8.11535792,25.1808197 C8.00348736,25.0645551 7.91010658,25.0498691 7.83541177,25.1371185 Z" id="Path"></path>
                </g>
            </g>
        </g>
    </g>
</svg>