<?xml version="1.0" encoding="UTF-8"?>
<svg width="339px" height="338px" viewBox="0 0 339 338" version="1.1" xmlns="http://www.w3.org/2000/svg" xmlns:xlink="http://www.w3.org/1999/xlink">
    <title>cirlce mural</title>
    <g id="Mobile-Final" stroke="none" stroke-width="1" fill="none" fill-rule="evenodd">
        <g id="iPhone-11-Pro-Max" transform="translate(-37.000000, -128.000000)">
            <g id="cirlce-mural" transform="translate(207.000000, 297.000000) scale(-1, -1) translate(-207.000000, -297.000000) translate(38.000000, 128.000000)">
                <g id="circle-2" transform="translate(225.333333, 0.000000)" fill-rule="evenodd">
                    <path d="M56.3333333,0 C87.4453742,0 112.666667,25.2212924 112.666667,56.3333333 C112.666667,87.4453742 87.4453742,112.666667 56.3333333,112.666667 L56.3333333,112.666667 Z" id="Combined-Shape" fill="#B781D0"></path>
                    <path d="M56.3333333,56.3333333 L56.3333333,112.666667 L0,112.666667 L0.00754705718,111.735092 C0.505014923,81.052722 25.5324128,56.3333333 56.3333333,56.3333333 L56.3333333,56.3333333 Z" id="Combined-Shape" fill="#0FCFC9"></path>
                    <polygon id="Path" fill="#FD828A" points="56.3333333 0 0 56.3333333 56.3333333 56.3333333"></polygon>
                </g>
                <g id="circle-2" transform="translate(225.333333, 112.666667)" fill-rule="evenodd">
                    <path d="M56.3333333,0 L56.3333333,56.3333333 L0,56.3333333 L0.00754705718,55.4017587 C0.505014923,24.7193887 25.5324128,0 56.3333333,0 L56.3333333,0 Z" id="Combined-Shape" fill="#0FCFC9" transform="translate(28.166667, 28.166667) scale(1, -1) translate(-28.166667, -28.166667) "></path>
                    <path d="M112.666667,0 L112.666667,56.3333333 L56.3333333,56.3333333 L56.3408804,55.4017587 C56.8383483,24.7193887 81.8657462,0 112.666667,0 L112.666667,0 Z" id="Combined-Shape" fill="#0FCFC9" transform="translate(84.500000, 28.166667) scale(-1, -1) translate(-84.500000, -28.166667) "></path>
                    <path d="M28.4204204,28.4204204 C59.5324613,28.4204204 84.7537538,53.6417128 84.7537538,84.7537538 C84.7537538,115.865795 59.5324613,141.087087 28.4204204,141.087087 L28.4204204,141.087087 Z" id="Combined-Shape" fill="#B781D0" transform="translate(56.587087, 84.753754) rotate(90.000000) translate(-56.587087, -84.753754) "></path>
                </g>
                <g id="circle-2" transform="translate(225.333333, 225.333333)" fill="#FD828A" fill-rule="evenodd">
                    <circle id="Combined-Shape" cx="56.3333333" cy="56.3333333" r="56.3333333"></circle>
                </g>
                <g id="circle-2" transform="translate(112.666667, 0.000000)" fill-rule="evenodd">
                    <polygon id="Path" fill="#FD828A" points="56.3333333 0 0 56.3333333 56.3333333 56.3333333"></polygon>
                    <polygon id="Path" fill="#B781D0" points="112.666667 0 56.3333333 56.3333333 112.666667 56.3333333"></polygon>
                    <polygon id="Path" fill="#FD828A" points="112.666667 56.3333333 56.3333333 112.666667 112.666667 112.666667"></polygon>
                    <polygon id="Path" fill="#B781D0" points="56.3333333 56.3333333 0 112.666667 56.3333333 112.666667"></polygon>
                </g>
                <path d="M112.666667,0 C112.666667,31.1120409 87.4453742,56.3333333 56.3333333,56.3333333 C25.2212924,56.3333333 0,31.1120409 0,0 L39.587,0 L39.5885937,0.0693144584 C39.7608051,9.30989522 47.3053443,16.7477477 56.5870871,16.7477477 C65.8919571,16.7477477 73.4509557,9.27278333 73.5867304,0.000206859948 L112.666667,0 L112.666667,0 Z" id="Combined-Shape" fill="#0FCFC9" fill-rule="evenodd"></path>
                <path d="M112.666667,56.3333333 C112.666667,87.4453742 87.4453742,112.666667 56.3333333,112.666667 C25.2212924,112.666667 0,87.4453742 0,56.3333333 L39.587,56.3333333 L39.5885937,56.4026478 C39.7608051,65.6432286 47.3053443,73.0810811 56.5870871,73.0810811 C65.8919571,73.0810811 73.4509557,65.6061167 73.5867304,56.3335402 L112.666667,56.3333333 L112.666667,56.3333333 Z" id="Combined-Shape" fill="#B781D0" fill-rule="evenodd" transform="translate(56.333333, 84.500000) scale(1, -1) translate(-56.333333, -84.500000) "></path>
                <g id="circle-2" transform="translate(0.000000, 112.666667)" fill-rule="evenodd">
                    <rect id="Rectangle" fill="#0FCFC9" x="0" y="0" width="40.0930931" height="112.666667"></rect>
                    <rect id="Rectangle" fill="#0FCFC9" x="0" y="0" width="40.0930931" height="112.666667"></rect>
                    <rect id="Rectangle" fill="#FD828A" x="72.5735736" y="0" width="40.0930931" height="112.666667"></rect>
                </g>
                <polygon id="Path-2" fill="#B781D0" fill-rule="evenodd" points="0 225.333333 112.666667 225.333333 112.666667 281.666667"></polygon>
                <circle id="Oval" fill="#0FCFC9" fill-rule="evenodd" cx="43.1381381" cy="294.861862" r="43.1381381"></circle>
                <g id="circle-2" transform="translate(112.666667, 112.666667)" fill="#0FCFC9" fill-rule="evenodd">
                    <path d="M55.4017587,112.65912 C24.7193887,112.161652 0,87.1342538 0,56.3333333 C0,25.2212924 25.2212924,0 56.3333333,0 L56.3333333,0 L56.3333333,112.666667 Z" id="Combined-Shape"></path>
                    <path d="M111.735092,112.65912 C81.052722,112.161652 56.3333333,87.1342538 56.3333333,56.3333333 C56.3333333,25.2212924 81.5546258,0 112.666667,0 L112.666667,0 L112.666667,112.666667 Z" id="Combined-Shape"></path>
                </g>
                <g id="circle-2" transform="translate(112.666667, 225.333333)" fill="#B781D0" fill-rule="evenodd">
                    <path d="M56.3333333,0 C87.4453742,0 112.666667,25.2212924 112.666667,56.3333333 C112.666667,87.4453742 87.4453742,112.666667 56.3333333,112.666667 C25.2212924,112.666667 0,87.4453742 0,56.3333333 C0,25.2212924 25.2212924,0 56.3333333,0 Z M56.5870871,39.0780781 C47.1974171,39.0780781 39.5855856,46.6899096 39.5855856,56.0795796 C39.5855856,65.4692496 47.1974171,73.0810811 56.5870871,73.0810811 C65.9767571,73.0810811 73.5885886,65.4692496 73.5885886,56.0795796 C73.5885886,46.6899096 65.9767571,39.0780781 56.5870871,39.0780781 Z" id="Combined-Shape"></path>
                </g>
                <line x1="281.666667" y1="112.666667" x2="225.333333" y2="112.666667" id="Path-5" stroke="#0FCFC9" stroke-width="4"></line>
                <line x1="281.666667" y1="112.666667" x2="281.666667" y2="169" id="Path-6" stroke="#0FCFC9" stroke-width="4"></line>
            </g>
        </g>
    </g>
</svg>