<?xml version="1.0" encoding="UTF-8"?>
<svg width="713px" height="713px" viewBox="0 0 348 349" version="1.1" xmlns="http://www.w3.org/2000/svg" xmlns:xlink="http://www.w3.org/1999/xlink">
    <title>Group 15</title>
    <g id="Desktop-Final" stroke="none" stroke-width="1" fill="none" fill-rule="evenodd">
        <g id="Desktop---No-carousel" transform="translate(-209.000000, -1624.000000)">
            <g id="r" transform="translate(143.000000, 1558.000000)">
                <g id="Group-4">
                    <g id="Group-3">
                        <g id="Group-15" transform="translate(66.582121, 66.000000)">
                            <ellipse id="Oval" fill="#FFFFFF" cx="173.411642" cy="174.5" rx="173.411642" ry="174.5"></ellipse>
                            <g id="Logo-2(1)" transform="translate(53.663202, 55.000000)" fill-rule="nonzero">
                                <path d="M10.9313929,198.238737 C42.2109171,216.323291 82.2541758,205.511489 100.369955,174.089736 L127.776506,126.553247 C128.636549,125.061512 128.129983,123.156458 126.644947,122.298165 L119.672896,118.266843 C93.7286338,103.266905 60.515891,112.234777 45.4900557,138.296837 L10.9313929,198.238737 Z" id="Path" fill="#FFBA92"></path>
                                <path d="M68.5696466,240 C104.792974,240 134.158004,210.663053 134.158004,174.473921 L134.158004,120.101047 C134.158004,118.388453 132.768239,117 131.054027,117 L122.885628,117 C92.8876355,117 68.5696466,141.295394 68.5696466,171.264706 L68.5696466,240 Z" id="Path" fill="#FF8080"></path>
                                <path d="M193.976226,239 C211.943424,207.790041 201.359671,167.92795 170.336196,149.965357 L122.755828,122.415707 C121.274037,121.557636 119.376987,122.070594 118.518447,123.561616 L114.607958,130.354412 C99.6585822,156.321686 108.464546,189.488136 134.27679,204.43352 L193.976226,239 Z" id="Path" fill="#FFBA92"></path>
                                <path d="M238.503119,185 C238.503119,149.101222 209.24325,120 173.149581,120 L117.414268,120 C115.684578,120 114.282744,121.39425 114.282744,123.114583 L114.282744,130.833333 C114.282744,160.7485 138.665786,185 168.744026,185 L238.503119,185 Z" id="Path" fill="#FF8080"></path>
                                <path d="M231.546778,43.7612922 C200.267081,25.6766717 160.224102,36.4885425 142.107925,67.910285 L114.701678,115.446758 C113.841634,116.938492 114.3482,118.843546 115.832878,119.701839 L122.805305,123.73316 C148.749259,138.733092 181.96207,129.765223 196.987936,103.703172 L231.546778,43.7612922 Z" id="Path" fill="#FFBA92"></path>
                                <path d="M174.902287,0 C138.678959,0 109.313929,29.3371531 109.313929,65.5264344 L109.313929,119.899314 C109.313929,121.611547 110.703694,123 112.417907,123 L120.586306,123 C150.584298,123 174.902287,98.7049648 174.902287,68.7352877 L174.902287,0 Z" id="Path" fill="#FF8080"></path>
                                <path d="M43.5331852,4 C25.5658906,35.2098613 36.1497444,75.0720176 67.1728405,93.0349852 L114.753538,120.584292 C116.235327,121.442365 118.132376,120.929406 118.990557,119.438383 L122.901402,112.645582 C137.850768,86.6782893 129.04481,53.5118164 103.232583,38.5664215 L43.5331852,4 Z" id="Path" fill="#FFBA92"></path>
                                <path d="M0,58 C0,93.8984167 29.2597885,123 65.3535336,123 L121.08885,123 C122.818541,123 124.220374,121.605389 124.220374,119.885417 L124.220374,112.166667 C124.220374,82.2511389 99.8373305,58 69.7590885,58 L0,58 Z" id="Path" fill="#FF8080"></path>
                            </g>
                        </g>
                    </g>
                </g>
            </g>
        </g>
    </g>
</svg>