<?xml version="1.0" encoding="UTF-8"?>
<svg width="156px" height="30px" viewBox="0 0 156 30" version="1.1" xmlns="http://www.w3.org/2000/svg" xmlns:xlink="http://www.w3.org/1999/xlink">
    <title>Group 7</title>
    <g id="Mobile-Final" stroke="none" stroke-width="1" fill="none" fill-rule="evenodd">
        <g id="iPhone-11-Pro-Max" transform="translate(-40.000000, -827.000000)">
            <g id="Group-7" transform="translate(40.000000, 827.000000)">
                <rect id="Rectangle" fill="#B781D0" x="1" y="16" width="109" height="14"></rect>
                <path d="M7.63636364,23.3068182 C8.97727273,23.3068182 10.1178977,23.0823864 11.0582386,22.6335227 C11.9985795,22.1846591 12.7144886,21.5795455 13.2059659,20.8181818 C13.6974432,20.0568182 13.9431818,19.2045455 13.9431818,18.2613636 C13.9431818,17.4431818 13.7755682,16.7528409 13.4403409,16.1903409 C13.1051136,15.6278409 12.6803977,15.1661932 12.1661932,14.8053977 C11.6519886,14.4446023 11.1150568,14.1590909 10.5553977,13.9488636 C9.99573864,13.7386364 9.48863636,13.5738636 9.03409091,13.4545455 L9.03409091,13.4545455 L7.26136364,12.9772727 C6.9375,12.8920455 6.58238636,12.7798295 6.19602273,12.640625 C5.80965909,12.5014205 5.44034091,12.3224432 5.08806818,12.1036932 C4.73579545,11.8849432 4.44744318,11.609375 4.22301136,11.2769886 C3.99857955,10.9446023 3.88636364,10.5454545 3.88636364,10.0795455 C3.88636364,9.52272727 4.046875,9.02556818 4.36789773,8.58806818 C4.68892045,8.15056818 5.13778409,7.80681818 5.71448864,7.55681818 C6.29119318,7.30681818 6.96590909,7.18181818 7.73863636,7.18181818 C8.79545455,7.18181818 9.6875,7.42045455 10.4147727,7.89772727 C11.1420455,8.375 11.5568182,9.04545455 11.6590909,9.90909091 L11.6590909,9.90909091 L13.7045455,9.90909091 C13.6761364,9.02840909 13.4048295,8.24147727 12.890625,7.54829545 C12.3764205,6.85511364 11.6818182,6.30823864 10.8068182,5.90767045 C9.93181818,5.50710227 8.93181818,5.30681818 7.80681818,5.30681818 C6.69318182,5.30681818 5.68607955,5.50994318 4.78551136,5.91619318 C3.88494318,6.32244318 3.16903409,6.890625 2.63778409,7.62073864 C2.10653409,8.35085227 1.84090909,9.20454545 1.84090909,10.1818182 C1.84090909,11.3579545 2.23863636,12.3096591 3.03409091,13.0369318 C3.82954545,13.7642045 4.90909091,14.3238636 6.27272727,14.7159091 L6.27272727,14.7159091 L8.42045455,15.3295455 C9.03409091,15.5 9.60511364,15.6988636 10.1335227,15.9261364 C10.6619318,16.1534091 11.0880682,16.4488636 11.4119318,16.8125 C11.7357955,17.1761364 11.8977273,17.6477273 11.8977273,18.2272727 C11.8977273,18.8636364 11.7102273,19.4190341 11.3352273,19.8934659 C10.9602273,20.3678977 10.4517045,20.7372159 9.80965909,21.0014205 C9.16761364,21.265625 8.44318182,21.3977273 7.63636364,21.3977273 C6.94318182,21.3977273 6.296875,21.2940341 5.69744318,21.0866477 C5.09801136,20.8792614 4.60369318,20.5610795 4.21448864,20.1321023 C3.82528409,19.703125 3.60227273,19.1590909 3.54545455,18.5 L3.54545455,18.5 L1.36363636,18.5 C1.43181818,19.4545455 1.72585227,20.2926136 2.24573864,21.0142045 C2.765625,21.7357955 3.48153409,22.2982955 4.39346591,22.7017045 C5.30539773,23.1051136 6.38636364,23.3068182 7.63636364,23.3068182 Z M21.5795455,23.1704545 C21.9545455,23.1704545 22.2642045,23.1434659 22.5085227,23.0894886 C22.7528409,23.0355114 22.9431818,22.9829545 23.0795455,22.9318182 L23.0795455,22.9318182 L22.6704545,21.125 C22.5852273,21.1420455 22.4715909,21.1633523 22.3295455,21.1889205 C22.1875,21.2144886 22.0056818,21.2272727 21.7840909,21.2272727 C21.4886364,21.2272727 21.2088068,21.1803977 20.9446023,21.0866477 C20.6803977,20.9928977 20.4644886,20.8053977 20.296875,20.5241477 C20.1292614,20.2428977 20.0454545,19.8181818 20.0454545,19.25 L20.0454545,19.25 L20.045,11.614 L22.8409091,11.6136364 L22.8409091,9.90909091 L20.045,9.91 L20.0454545,6.77272727 L18.0340909,6.77272727 L18.034,9.91 L16.0568182,9.90909091 L16.0568182,11.6136364 L18.034,11.614 L18.0340909,19.7954545 C18.0340909,20.4722222 18.1743827,21.0457351 18.4549663,21.5159933 L18.5667614,21.6875 C18.921875,22.1875 19.3707386,22.5596591 19.9133523,22.8039773 C20.4559659,23.0482955 21.0113636,23.1704545 21.5795455,23.1704545 Z M30.1022727,23.1704545 C31.0909091,23.1704545 31.9090909,22.9389205 32.5568182,22.4758523 C33.2045455,22.0127841 33.6818182,21.4488636 33.9886364,20.7840909 L33.9886364,20.7840909 L34.125,20.7840909 L34.125,23 L36.1363636,23 L36.1363636,9.90909091 L34.125,9.90909091 L34.125,17.6477273 C34.125,18.4659091 33.9474432,19.1392045 33.5923295,19.6676136 C33.2372159,20.1960227 32.7997159,20.5880682 32.2798295,20.84375 C31.7599432,21.0994318 31.25,21.2272727 30.75,21.2272727 C29.9147727,21.2272727 29.2286932,20.9431818 28.6917614,20.375 C28.1548295,19.8068182 27.8863636,19.0454545 27.8863636,18.0909091 L27.8863636,18.0909091 L27.8863636,9.90909091 L25.875,9.90909091 L25.875,18.2272727 C25.875,19.3409091 26.0568182,20.2627841 26.4204545,20.9928977 C26.7840909,21.7230114 27.2840909,22.2684659 27.9204545,22.6292614 C28.5568182,22.9900568 29.2840909,23.1704545 30.1022727,23.1704545 Z M42.7159091,23 L42.715,11.614 L45.6477273,11.6136364 L45.6477273,9.90909091 L42.715,9.91 L42.7159091,8.57954545 C42.7159091,8.00378788 42.8315095,7.55148709 43.0627104,7.2226431 L43.1548295,7.10511364 C43.4474432,6.76988636 43.9261364,6.60227273 44.5909091,6.60227273 C44.8806818,6.60227273 45.1150568,6.62784091 45.2940341,6.67897727 C45.4730114,6.73011364 45.6136364,6.77272727 45.7159091,6.80681818 L45.7159091,6.80681818 L46.2954545,5.06818182 C46.1420455,5 45.9090909,4.92613636 45.5965909,4.84659091 C45.2840909,4.76704545 44.8806818,4.72727273 44.3863636,4.72727273 C43.7613636,4.72727273 43.1676136,4.85227273 42.6051136,5.10227273 C42.0426136,5.35227273 41.5852273,5.72727273 41.2329545,6.22727273 C40.8806818,6.72727273 40.7045455,7.35227273 40.7045455,8.10227273 L40.7045455,8.10227273 L40.704,9.91 L38.5909091,9.90909091 L38.5909091,11.6136364 L40.704,11.614 L40.7045455,23 L42.7159091,23 Z M51.375,23 L51.374,11.614 L54.3068182,11.6136364 L54.3068182,9.90909091 L51.374,9.91 L51.375,8.57954545 C51.375,8.00378788 51.4906004,7.55148709 51.7218013,7.2226431 L51.8139205,7.10511364 C52.1065341,6.76988636 52.5852273,6.60227273 53.25,6.60227273 C53.5397727,6.60227273 53.7741477,6.62784091 53.953125,6.67897727 C54.1321023,6.73011364 54.2727273,6.77272727 54.375,6.80681818 L54.375,6.80681818 L54.9545455,5.06818182 C54.8011364,5 54.5681818,4.92613636 54.2556818,4.84659091 C53.9431818,4.76704545 53.5397727,4.72727273 53.0454545,4.72727273 C52.4204545,4.72727273 51.8267045,4.85227273 51.2642045,5.10227273 C50.7017045,5.35227273 50.2443182,5.72727273 49.8920455,6.22727273 C49.5397727,6.72727273 49.3636364,7.35227273 49.3636364,8.10227273 L49.3636364,8.10227273 L49.363,9.91 L47.25,9.90909091 L47.25,11.6136364 L49.363,11.614 L49.3636364,23 L51.375,23 Z M66.2727273,23 L66.2727273,5.54545455 L64.1590909,5.54545455 L64.1590909,23 L66.2727273,23 Z M69.8522727,11.375 C70.3068182,11.0113636 70.6946023,10.5838068 71.015625,10.0923295 C71.3366477,9.60085227 71.5809659,9.09232955 71.7485795,8.56676136 C71.9161932,8.04119318 72,7.54545455 72,7.07954545 L72,7.07954545 L72,5.54545455 L70.0909091,5.54545455 L70.0909091,7.11363636 C70.0909091,7.74431818 69.9588068,8.33664773 69.6946023,8.890625 C69.4303977,9.44460227 69.1193182,9.97727273 68.7613636,10.4886364 L68.7613636,10.4886364 L69.8522727,11.375 Z M80.8636364,23 L85.7045455,9.90909091 L83.5227273,9.90909091 L79.9090909,20.3409091 L79.7727273,20.3409091 L76.1590909,9.90909091 L73.9772727,9.90909091 L78.8181818,23 L80.8636364,23 Z M93.375,23.2727273 C94.2613636,23.2727273 95.0596591,23.1349432 95.7698864,22.859375 C96.4801136,22.5838068 97.0767045,22.1974432 97.5596591,21.7002841 C98.0426136,21.203125 98.3863636,20.625 98.5909091,19.9659091 L98.5909091,19.9659091 L96.6477273,19.4204545 C96.4772727,19.875 96.2357955,20.2542614 95.9232955,20.5582386 C95.6107955,20.8622159 95.2400568,21.0894886 94.8110795,21.2400568 C94.3821023,21.390625 93.9034091,21.4659091 93.375,21.4659091 C92.5625,21.4659091 91.8494318,21.2883523 91.2357955,20.9332386 C90.6221591,20.578125 90.1434659,20.0582386 89.7997159,19.3735795 C89.4559659,18.6889205 89.2840909,17.8522727 89.2840909,16.8636364 L89.289,17.137 L98.7954545,17.1363636 L98.7954545,16.2840909 C98.7954545,15.0625 98.6335227,14.0340909 98.3096591,13.1988636 C97.9857955,12.3636364 97.5511364,11.6917614 97.0056818,11.1832386 C96.4602273,10.6747159 95.8551136,10.3068182 95.1903409,10.0795455 C94.5255682,9.85227273 93.8522727,9.73863636 93.1704545,9.73863636 C91.9886364,9.73863636 90.9559659,10.0269886 90.0724432,10.6036932 C89.1889205,11.1803977 88.5014205,11.9815341 88.0099432,13.0071023 C87.5184659,14.0326705 87.2727273,15.2159091 87.2727273,16.5568182 C87.2727273,17.8977273 87.5184659,19.0724432 88.0099432,20.0809659 C88.5014205,21.0894886 89.203125,21.8735795 90.1150568,22.4332386 C91.0269886,22.9928977 92.1136364,23.2727273 93.375,23.2727273 Z M89.3133878,15.171875 C89.3719815,14.6477273 89.5184659,14.1491477 89.7528409,13.6761364 C90.0653409,13.0454545 90.5127841,12.5326705 91.0951705,12.1377841 C91.6775568,11.7428977 92.3693182,11.5454545 93.1704545,11.5454545 C93.8977273,11.5454545 94.5298295,11.7130682 95.0667614,12.0482955 C95.6036932,12.3835227 96.0184659,12.8409091 96.3110795,13.4204545 C96.6036932,14 96.75,14.6590909 96.75,15.3977273 L96.75,15.3977273 L89.294,15.398 L89.3133878,15.171875 Z M114.886364,23.2727273 C115.977273,23.2727273 116.940341,22.9957386 117.775568,22.4417614 C118.610795,21.8877841 119.264205,21.1036932 119.735795,20.0894886 C120.207386,19.0752841 120.443182,17.875 120.443182,16.4886364 C120.443182,15.1136364 120.207386,13.9204545 119.735795,12.9090909 C119.264205,11.8977273 118.607955,11.1164773 117.767045,10.5653409 C116.926136,10.0142045 115.954545,9.73863636 114.852273,9.73863636 C114,9.73863636 113.325284,9.87926136 112.828125,10.1605114 C112.330966,10.4417614 111.950284,10.7599432 111.68608,11.1150568 C111.421875,11.4701705 111.215909,11.7613636 111.068182,11.9886364 L111.068182,11.9886364 L110.897727,11.9886364 L110.897727,5.54545455 L108.886364,5.54545455 L108.886364,23 L110.829545,23 L110.829545,20.9886364 L111.068182,20.9886364 C111.215909,21.2272727 111.426136,21.5269886 111.698864,21.8877841 C111.971591,22.2485795 112.360795,22.5696023 112.866477,22.8508523 C113.372159,23.1321023 114.045455,23.2727273 114.886364,23.2727273 Z M114.613636,21.4659091 C113.806818,21.4659091 113.125,21.2542614 112.568182,20.8309659 C112.011364,20.4076705 111.588068,19.8196023 111.298295,19.0667614 C111.008523,18.3139205 110.863636,17.4431818 110.863636,16.4545455 C110.863636,15.4772727 111.005682,14.6207386 111.289773,13.8849432 C111.573864,13.1491477 111.994318,12.5752841 112.551136,12.1633523 C113.107955,11.7514205 113.795455,11.5454545 114.613636,11.5454545 C115.465909,11.5454545 116.174716,11.7627841 116.740057,12.1974432 C117.305398,12.6321023 117.728693,13.2201705 118.009943,13.9616477 C118.291193,14.703125 118.431818,15.5340909 118.431818,16.4545455 C118.431818,17.3863636 118.288352,18.2315341 118.00142,18.9900568 C117.714489,19.7485795 117.288352,20.3508523 116.723011,20.796875 C116.15767,21.2428977 115.454545,21.4659091 114.613636,21.4659091 Z M127.738636,23.1704545 C128.727273,23.1704545 129.545455,22.9389205 130.193182,22.4758523 C130.840909,22.0127841 131.318182,21.4488636 131.625,20.7840909 L131.625,20.7840909 L131.761364,20.7840909 L131.761364,23 L133.772727,23 L133.772727,9.90909091 L131.761364,9.90909091 L131.761364,17.6477273 C131.761364,18.4659091 131.583807,19.1392045 131.228693,19.6676136 C130.87358,20.1960227 130.43608,20.5880682 129.916193,20.84375 C129.396307,21.0994318 128.886364,21.2272727 128.386364,21.2272727 C127.551136,21.2272727 126.865057,20.9431818 126.328125,20.375 C125.791193,19.8068182 125.522727,19.0454545 125.522727,18.0909091 L125.522727,18.0909091 L125.522727,9.90909091 L123.511364,9.90909091 L123.511364,18.2272727 C123.511364,19.3409091 123.693182,20.2627841 124.056818,20.9928977 C124.420455,21.7230114 124.920455,22.2684659 125.556818,22.6292614 C126.193182,22.9900568 126.920455,23.1704545 127.738636,23.1704545 Z M138.477273,7.72727273 C138.869318,7.72727273 139.205966,7.59375 139.487216,7.32670455 C139.768466,7.05965909 139.909091,6.73863636 139.909091,6.36363636 C139.909091,5.98863636 139.768466,5.66761364 139.487216,5.40056818 C139.205966,5.13352273 138.869318,5 138.477273,5 C138.085227,5 137.74858,5.13352273 137.46733,5.40056818 C137.18608,5.66761364 137.045455,5.98863636 137.045455,6.36363636 C137.045455,6.73863636 137.18608,7.05965909 137.46733,7.32670455 C137.74858,7.59375 138.085227,7.72727273 138.477273,7.72727273 Z M139.465909,23 L139.465909,9.90909091 L137.454545,9.90909091 L137.454545,23 L139.465909,23 Z M145.159091,23 L145.159091,5.54545455 L143.147727,5.54545455 L143.147727,23 L145.159091,23 Z M153.272727,23.1704545 C153.647727,23.1704545 153.957386,23.1434659 154.201705,23.0894886 C154.446023,23.0355114 154.636364,22.9829545 154.772727,22.9318182 L154.772727,22.9318182 L154.363636,21.125 C154.278409,21.1420455 154.164773,21.1633523 154.022727,21.1889205 C153.880682,21.2144886 153.698864,21.2272727 153.477273,21.2272727 C153.181818,21.2272727 152.901989,21.1803977 152.637784,21.0866477 C152.37358,20.9928977 152.15767,20.8053977 151.990057,20.5241477 C151.822443,20.2428977 151.738636,19.8181818 151.738636,19.25 L151.738636,19.25 L151.738,11.614 L154.534091,11.6136364 L154.534091,9.90909091 L151.738,9.91 L151.738636,6.77272727 L149.727273,6.77272727 L149.727,9.91 L147.75,9.90909091 L147.75,11.6136364 L149.727,11.614 L149.727273,19.7954545 C149.727273,20.4722222 149.867565,21.0457351 150.148148,21.5159933 L150.259943,21.6875 C150.615057,22.1875 151.06392,22.5596591 151.606534,22.8039773 C152.149148,23.0482955 152.704545,23.1704545 153.272727,23.1704545 Z" id="StuffI’vebuilt" fill="#000000" fill-rule="nonzero"></path>
            </g>
        </g>
    </g>
</svg>