<?xml version="1.0" encoding="UTF-8"?>
<svg width="294px" height="30px" viewBox="0 0 294 30" version="1.1" xmlns="http://www.w3.org/2000/svg" xmlns:xlink="http://www.w3.org/1999/xlink">
    <title>Group 7</title>
    <g id="Mobile-Final" stroke="none" stroke-width="1" fill="none" fill-rule="evenodd">
        <g id="iPhone-11-Pro-Max" transform="translate(-40.000000, -727.000000)">
            <g id="Group-7" transform="translate(40.000000, 727.000000)">
                <rect id="Rectangle" fill="#0FCFC9" x="1" y="16" width="210" height="14"></rect>
                <path d="M9.13636364,23.2386364 C10.0170455,23.2386364 10.8451705,23.1107955 11.6207386,22.8551136 C12.3963068,22.5994318 13.0965909,22.2258523 13.7215909,21.734375 C14.3465909,21.2428977 14.8693182,20.6448864 15.2897727,19.9403409 C15.7102273,19.2357955 16,18.4375 16.1590909,17.5454545 L16.1590909,17.5454545 L14.0454545,17.5454545 C13.9204545,18.1477273 13.703125,18.6803977 13.3934659,19.1434659 C13.0838068,19.6065341 12.7088068,19.9957386 12.2684659,20.3110795 C11.828125,20.6264205 11.3409091,20.8636364 10.8068182,21.0227273 C10.2727273,21.1818182 9.71590909,21.2613636 9.13636364,21.2613636 C8.07954545,21.2613636 7.12357955,20.9943182 6.26846591,20.4602273 C5.41335227,19.9261364 4.734375,19.1392045 4.23153409,18.0994318 C3.72869318,17.0596591 3.47727273,15.7840909 3.47727273,14.2727273 C3.47727273,12.7613636 3.72869318,11.4857955 4.23153409,10.4460227 C4.734375,9.40625 5.41335227,8.61931818 6.26846591,8.08522727 C7.12357955,7.55113636 8.07954545,7.28409091 9.13636364,7.28409091 C9.71590909,7.28409091 10.2727273,7.36363636 10.8068182,7.52272727 C11.3409091,7.68181818 11.828125,7.91903409 12.2684659,8.234375 C12.7088068,8.54971591 13.0838068,8.9375 13.3934659,9.39772727 C13.703125,9.85795455 13.9204545,10.3920455 14.0454545,11 L14.0454545,11 L16.1590909,11 C16,10.1022727 15.7102273,9.30255682 15.2897727,8.60085227 C14.8693182,7.89914773 14.3465909,7.30255682 13.7215909,6.81107955 C13.0965909,6.31960227 12.3963068,5.94602273 11.6207386,5.69034091 C10.8451705,5.43465909 10.0170455,5.30681818 9.13636364,5.30681818 C7.64772727,5.30681818 6.32386364,5.67045455 5.16477273,6.39772727 C4.00568182,7.125 3.09375,8.15909091 2.42897727,9.5 C1.76420455,10.8409091 1.43181818,12.4318182 1.43181818,14.2727273 C1.43181818,16.1136364 1.76420455,17.7045455 2.42897727,19.0454545 C3.09375,20.3863636 4.00568182,21.4204545 5.16477273,22.1477273 C6.32386364,22.875 7.64772727,23.2386364 9.13636364,23.2386364 Z M21.3068182,23 L21.3068182,15.125 C21.3068182,14.3636364 21.4559659,13.7159091 21.7542614,13.1818182 C22.0525568,12.6477273 22.4616477,12.2414773 22.9815341,11.9630682 C23.5014205,11.6846591 24.0909091,11.5454545 24.75,11.5454545 C25.6988636,11.5454545 26.4417614,11.8309659 26.9786932,12.4019886 C27.515625,12.9730114 27.7840909,13.7784091 27.7840909,14.8181818 L27.7840909,14.8181818 L27.7840909,23 L29.7954545,23 L29.7954545,14.6818182 C29.7954545,13.5568182 29.609375,12.6292614 29.2372159,11.8991477 C28.8650568,11.1690341 28.34375,10.6264205 27.6732955,10.2713068 C27.0028409,9.91619318 26.2215909,9.73863636 25.3295455,9.73863636 C24.3011364,9.73863636 23.4786932,9.93892045 22.8622159,10.3394886 C22.2457386,10.7400568 21.7840909,11.2784091 21.4772727,11.9545455 L21.4772727,11.9545455 L21.3068182,11.9545455 L21.3068182,5.54545455 L19.2954545,5.54545455 L19.2954545,23 L21.3068182,23 Z M38.9659091,23.2727273 C39.8522727,23.2727273 40.6505682,23.1349432 41.3607955,22.859375 C42.0710227,22.5838068 42.6676136,22.1974432 43.1505682,21.7002841 C43.6335227,21.203125 43.9772727,20.625 44.1818182,19.9659091 L44.1818182,19.9659091 L42.2386364,19.4204545 C42.0681818,19.875 41.8267045,20.2542614 41.5142045,20.5582386 C41.2017045,20.8622159 40.8309659,21.0894886 40.4019886,21.2400568 C39.9730114,21.390625 39.4943182,21.4659091 38.9659091,21.4659091 C38.1534091,21.4659091 37.4403409,21.2883523 36.8267045,20.9332386 C36.2130682,20.578125 35.734375,20.0582386 35.390625,19.3735795 C35.046875,18.6889205 34.875,17.8522727 34.875,16.8636364 L34.88,17.137 L44.3863636,17.1363636 L44.3863636,16.2840909 C44.3863636,15.0625 44.2244318,14.0340909 43.9005682,13.1988636 C43.5767045,12.3636364 43.1420455,11.6917614 42.5965909,11.1832386 C42.0511364,10.6747159 41.4460227,10.3068182 40.78125,10.0795455 C40.1164773,9.85227273 39.4431818,9.73863636 38.7613636,9.73863636 C37.5795455,9.73863636 36.546875,10.0269886 35.6633523,10.6036932 C34.7798295,11.1803977 34.0923295,11.9815341 33.6008523,13.0071023 C33.109375,14.0326705 32.8636364,15.2159091 32.8636364,16.5568182 C32.8636364,17.8977273 33.109375,19.0724432 33.6008523,20.0809659 C34.0923295,21.0894886 34.7940341,21.8735795 35.7059659,22.4332386 C36.6178977,22.9928977 37.7045455,23.2727273 38.9659091,23.2727273 Z M34.9042969,15.171875 C34.9628906,14.6477273 35.109375,14.1491477 35.34375,13.6761364 C35.65625,13.0454545 36.1036932,12.5326705 36.6860795,12.1377841 C37.2684659,11.7428977 37.9602273,11.5454545 38.7613636,11.5454545 C39.4886364,11.5454545 40.1207386,11.7130682 40.6576705,12.0482955 C41.1946023,12.3835227 41.609375,12.8409091 41.9019886,13.4204545 C42.1946023,14 42.3409091,14.6590909 42.3409091,15.3977273 L42.3409091,15.3977273 L34.885,15.398 L34.9042969,15.171875 Z M52.7727273,23.2727273 C53.7386364,23.2727273 54.5866477,23.0923295 55.3167614,22.7315341 C56.046875,22.3707386 56.6349432,21.8821023 57.0809659,21.265625 C57.5269886,20.6491477 57.8068182,19.9545455 57.9204545,19.1818182 L57.9204545,19.1818182 L55.9090909,19.1818182 C55.7840909,19.6590909 55.5738636,20.0681818 55.2784091,20.4090909 C54.9829545,20.75 54.6221591,21.0113636 54.1960227,21.1931818 C53.7698864,21.375 53.2954545,21.4659091 52.7727273,21.4659091 C51.9772727,21.4659091 51.2855114,21.2585227 50.6974432,20.84375 C50.109375,20.4289773 49.6548295,19.8465909 49.3338068,19.0965909 C49.0127841,18.3465909 48.8522727,17.4659091 48.8522727,16.4545455 C48.8522727,15.4659091 49.015625,14.6036932 49.3423295,13.8678977 C49.6690341,13.1321023 50.1264205,12.5610795 50.7144886,12.1548295 C51.3025568,11.7485795 51.9886364,11.5454545 52.7727273,11.5454545 C53.6590909,11.5454545 54.3650568,11.7769886 54.890625,12.2400568 C55.4161932,12.703125 55.7556818,13.2329545 55.9090909,13.8295455 L55.9090909,13.8295455 L57.9204545,13.8295455 C57.8068182,13.0113636 57.5142045,12.2954545 57.0426136,11.6818182 C56.5710227,11.0681818 55.9659091,10.5909091 55.2272727,10.25 C54.4886364,9.90909091 53.6590909,9.73863636 52.7386364,9.73863636 C51.5568182,9.73863636 50.5241477,10.0269886 49.640625,10.6036932 C48.7571023,11.1803977 48.0696023,11.9786932 47.578125,12.9985795 C47.0866477,14.0184659 46.8409091,15.1931818 46.8409091,16.5227273 C46.8409091,17.8295455 47.0795455,18.9914773 47.5568182,20.0085227 C48.0340909,21.0255682 48.7159091,21.8238636 49.6022727,22.4034091 C50.4886364,22.9829545 51.5454545,23.2727273 52.7727273,23.2727273 Z M62.8636364,5.54545455 L60.8522727,5.54545455 L60.8522727,23 L62.8636364,23 L62.863,18.102 L64.272,16.796 L69.1704545,23 L71.7272727,23 L65.787,15.502 L71.3181818,9.90909091 L68.8295455,9.90909091 L63.1022727,15.7386364 L62.863,15.739 L62.8636364,5.54545455 Z M85.9772727,23.2727273 C87.1590909,23.2727273 88.1946023,22.9914773 89.0838068,22.4289773 C89.9730114,21.8664773 90.6661932,21.0795455 91.1633523,20.0681818 C91.6605114,19.0568182 91.9090909,17.875 91.9090909,16.5227273 C91.9090909,15.1590909 91.6605114,13.96875 91.1633523,12.9517045 C90.6661932,11.9346591 89.9730114,11.1448864 89.0838068,10.5823864 C88.1946023,10.0198864 87.1590909,9.73863636 85.9772727,9.73863636 C84.7954545,9.73863636 83.7599432,10.0198864 82.8707386,10.5823864 C81.9815341,11.1448864 81.2883523,11.9346591 80.7911932,12.9517045 C80.2940341,13.96875 80.0454545,15.1590909 80.0454545,16.5227273 C80.0454545,17.875 80.2940341,19.0568182 80.7911932,20.0681818 C81.2883523,21.0795455 81.9815341,21.8664773 82.8707386,22.4289773 C83.7599432,22.9914773 84.7954545,23.2727273 85.9772727,23.2727273 Z M85.9772727,21.4659091 C85.0795455,21.4659091 84.3409091,21.2357955 83.7613636,20.7755682 C83.1818182,20.3153409 82.7528409,19.7102273 82.4744318,18.9602273 C82.1960227,18.2102273 82.0568182,17.3977273 82.0568182,16.5227273 C82.0568182,15.6477273 82.1960227,14.8323864 82.4744318,14.0767045 C82.7528409,13.3210227 83.1818182,12.7102273 83.7613636,12.2443182 C84.3409091,11.7784091 85.0795455,11.5454545 85.9772727,11.5454545 C86.875,11.5454545 87.6136364,11.7784091 88.1931818,12.2443182 C88.7727273,12.7102273 89.2017045,13.3210227 89.4801136,14.0767045 C89.7585227,14.8323864 89.8977273,15.6477273 89.8977273,16.5227273 C89.8977273,17.3977273 89.7585227,18.2102273 89.4801136,18.9602273 C89.2017045,19.7102273 88.7727273,20.3153409 88.1931818,20.7755682 C87.6136364,21.2357955 86.875,21.4659091 85.9772727,21.4659091 Z M99.2045455,23.1704545 C100.193182,23.1704545 101.011364,22.9389205 101.659091,22.4758523 C102.306818,22.0127841 102.784091,21.4488636 103.090909,20.7840909 L103.090909,20.7840909 L103.227273,20.7840909 L103.227273,23 L105.238636,23 L105.238636,9.90909091 L103.227273,9.90909091 L103.227273,17.6477273 C103.227273,18.4659091 103.049716,19.1392045 102.694602,19.6676136 C102.339489,20.1960227 101.901989,20.5880682 101.382102,20.84375 C100.862216,21.0994318 100.352273,21.2272727 99.8522727,21.2272727 C99.0170455,21.2272727 98.3309659,20.9431818 97.7940341,20.375 C97.2571023,19.8068182 96.9886364,19.0454545 96.9886364,18.0909091 L96.9886364,18.0909091 L96.9886364,9.90909091 L94.9772727,9.90909091 L94.9772727,18.2272727 C94.9772727,19.3409091 95.1590909,20.2627841 95.5227273,20.9928977 C95.8863636,21.7230114 96.3863636,22.2684659 97.0227273,22.6292614 C97.6590909,22.9900568 98.3863636,23.1704545 99.2045455,23.1704545 Z M113.352273,23.1704545 C113.727273,23.1704545 114.036932,23.1434659 114.28125,23.0894886 C114.525568,23.0355114 114.715909,22.9829545 114.852273,22.9318182 L114.852273,22.9318182 L114.443182,21.125 C114.357955,21.1420455 114.244318,21.1633523 114.102273,21.1889205 C113.960227,21.2144886 113.778409,21.2272727 113.556818,21.2272727 C113.261364,21.2272727 112.981534,21.1803977 112.71733,21.0866477 C112.453125,20.9928977 112.237216,20.8053977 112.069602,20.5241477 C111.901989,20.2428977 111.818182,19.8181818 111.818182,19.25 L111.818182,19.25 L111.818,11.614 L114.613636,11.6136364 L114.613636,9.90909091 L111.818,9.91 L111.818182,6.77272727 L109.806818,6.77272727 L109.806,9.91 L107.829545,9.90909091 L107.829545,11.6136364 L109.806,11.614 L109.806818,19.7954545 C109.806818,20.4722222 109.94711,21.0457351 110.227694,21.5159933 L110.339489,21.6875 C110.694602,22.1875 111.143466,22.5596591 111.68608,22.8039773 C112.228693,23.0482955 112.784091,23.1704545 113.352273,23.1704545 Z M126.409091,23 L126.409091,14.8181818 C126.409091,14.1761364 126.546875,13.609375 126.822443,13.1178977 C127.098011,12.6264205 127.461648,12.2414773 127.913352,11.9630682 C128.365057,11.6846591 128.852273,11.5454545 129.375,11.5454545 C130.136364,11.5454545 130.758523,11.7741477 131.241477,12.2315341 C131.724432,12.6889205 131.965909,13.2897727 131.965909,14.0340909 L131.965909,14.0340909 L131.965909,23 L134.011364,23 L134.011364,14.4772727 C134.011364,13.6306818 134.264205,12.9303977 134.769886,12.3764205 C135.275568,11.8224432 135.988636,11.5454545 136.909091,11.5454545 C137.625,11.5454545 138.247159,11.7528409 138.775568,12.1676136 C139.303977,12.5823864 139.568182,13.2727273 139.568182,14.2386364 L139.568182,14.2386364 L139.568182,23 L141.579545,23 L141.579545,14.2386364 C141.579545,12.6988636 141.207386,11.5639205 140.463068,10.8338068 C139.71875,10.1036932 138.761364,9.73863636 137.590909,9.73863636 C136.653409,9.73863636 135.849432,9.93892045 135.178977,10.3394886 C134.508523,10.7400568 134.005682,11.2784091 133.670455,11.9545455 L133.670455,11.9545455 L133.534091,11.9545455 C133.210227,11.2556818 132.759943,10.7116477 132.183239,10.3224432 C131.606534,9.93323864 130.886364,9.73863636 130.022727,9.73863636 C129.170455,9.73863636 128.440341,9.93323864 127.832386,10.3224432 C127.224432,10.7116477 126.784091,11.2556818 126.511364,11.9545455 L126.511364,11.9545455 L126.340909,11.9545455 L126.340909,9.90909091 L124.397727,9.90909091 L124.397727,23 L126.409091,23 Z M146.079545,27.875 C146.6875,27.875 147.234375,27.7670455 147.72017,27.5511364 C148.205966,27.3352273 148.633523,27.0071023 149.002841,26.5667614 C149.372159,26.1264205 149.681818,25.5738636 149.931818,24.9090909 L149.931818,24.9090909 L155.505682,9.94318182 L153.306818,9.90909091 L149.693182,20.3409091 L149.556818,20.3409091 L145.943182,9.90909091 L143.761364,9.90909091 L148.602273,23.0681818 L148.227273,24.0909091 C147.869318,25.0681818 147.446023,25.6548295 146.957386,25.8508523 C146.46875,26.046875 145.857955,26.0511364 145.125,25.8636364 L145.125,25.8636364 L144.613636,27.6363636 C144.715909,27.6875 144.900568,27.7400568 145.167614,27.7940341 C145.434659,27.8480114 145.738636,27.875 146.079545,27.875 Z M169.857955,23 L172.721591,12.9431818 L172.926136,12.9431818 L175.789773,23 L177.767045,23 L181.755682,9.90909091 L179.642045,9.90909091 L176.8125,19.8977273 L176.676136,19.8977273 L173.914773,9.90909091 L171.767045,9.90909091 L168.971591,19.9318182 L168.835227,19.9318182 L166.005682,9.90909091 L163.892045,9.90909091 L167.880682,23 L169.857955,23 Z M189.289773,23.2727273 C190.471591,23.2727273 191.507102,22.9914773 192.396307,22.4289773 C193.285511,21.8664773 193.978693,21.0795455 194.475852,20.0681818 C194.973011,19.0568182 195.221591,17.875 195.221591,16.5227273 C195.221591,15.1590909 194.973011,13.96875 194.475852,12.9517045 C193.978693,11.9346591 193.285511,11.1448864 192.396307,10.5823864 C191.507102,10.0198864 190.471591,9.73863636 189.289773,9.73863636 C188.107955,9.73863636 187.072443,10.0198864 186.183239,10.5823864 C185.294034,11.1448864 184.600852,11.9346591 184.103693,12.9517045 C183.606534,13.96875 183.357955,15.1590909 183.357955,16.5227273 C183.357955,17.875 183.606534,19.0568182 184.103693,20.0681818 C184.600852,21.0795455 185.294034,21.8664773 186.183239,22.4289773 C187.072443,22.9914773 188.107955,23.2727273 189.289773,23.2727273 Z M189.289773,21.4659091 C188.392045,21.4659091 187.653409,21.2357955 187.073864,20.7755682 C186.494318,20.3153409 186.065341,19.7102273 185.786932,18.9602273 C185.508523,18.2102273 185.369318,17.3977273 185.369318,16.5227273 C185.369318,15.6477273 185.508523,14.8323864 185.786932,14.0767045 C186.065341,13.3210227 186.494318,12.7102273 187.073864,12.2443182 C187.653409,11.7784091 188.392045,11.5454545 189.289773,11.5454545 C190.1875,11.5454545 190.926136,11.7784091 191.505682,12.2443182 C192.085227,12.7102273 192.514205,13.3210227 192.792614,14.0767045 C193.071023,14.8323864 193.210227,15.6477273 193.210227,16.5227273 C193.210227,17.3977273 193.071023,18.2102273 192.792614,18.9602273 C192.514205,19.7102273 192.085227,20.3153409 191.505682,20.7755682 C190.926136,21.2357955 190.1875,21.4659091 189.289773,21.4659091 Z M200.301136,23 L200.301136,14.7159091 C200.301136,14.125 200.444602,13.5980114 200.731534,13.1349432 C201.018466,12.671875 201.410511,12.3082386 201.90767,12.0440341 C202.40483,11.7798295 202.971591,11.6477273 203.607955,11.6477273 C203.875,11.6477273 204.129261,11.6661932 204.370739,11.703125 C204.612216,11.7400568 204.767045,11.7670455 204.835227,11.7840909 L204.835227,11.7840909 L204.835227,9.73863636 C204.721591,9.72727273 204.553977,9.71875 204.332386,9.71306818 C204.110795,9.70738636 203.926136,9.70454545 203.778409,9.70454545 C202.994318,9.70454545 202.289773,9.90625 201.664773,10.3096591 C201.039773,10.7130682 200.607955,11.2386364 200.369318,11.8863636 L200.369318,11.8863636 L200.232955,11.8863636 L200.232955,9.90909091 L198.289773,9.90909091 L198.289773,23 L200.301136,23 Z M209.232955,5.54545455 L207.221591,5.54545455 L207.221591,23 L209.232955,23 L209.232,18.102 L210.641,16.796 L215.539773,23 L218.096591,23 L212.156,15.503 L217.6875,9.90909091 L215.198864,9.90909091 L209.471591,15.7386364 L209.232,15.739 L209.232955,5.54545455 Z M233.301136,23.2727273 C234.392045,23.2727273 235.355114,22.9957386 236.190341,22.4417614 C237.025568,21.8877841 237.678977,21.1036932 238.150568,20.0894886 C238.622159,19.0752841 238.857955,17.875 238.857955,16.4886364 C238.857955,15.1136364 238.622159,13.9204545 238.150568,12.9090909 C237.678977,11.8977273 237.022727,11.1164773 236.181818,10.5653409 C235.340909,10.0142045 234.369318,9.73863636 233.267045,9.73863636 C232.414773,9.73863636 231.740057,9.87926136 231.242898,10.1605114 C230.745739,10.4417614 230.365057,10.7599432 230.100852,11.1150568 C229.836648,11.4701705 229.630682,11.7613636 229.482955,11.9886364 L229.482955,11.9886364 L229.3125,11.9886364 L229.3125,5.54545455 L227.301136,5.54545455 L227.301136,23 L229.244318,23 L229.244318,20.9886364 L229.482955,20.9886364 C229.630682,21.2272727 229.840909,21.5269886 230.113636,21.8877841 C230.386364,22.2485795 230.775568,22.5696023 231.28125,22.8508523 C231.786932,23.1321023 232.460227,23.2727273 233.301136,23.2727273 Z M233.028409,21.4659091 C232.221591,21.4659091 231.539773,21.2542614 230.982955,20.8309659 C230.426136,20.4076705 230.002841,19.8196023 229.713068,19.0667614 C229.423295,18.3139205 229.278409,17.4431818 229.278409,16.4545455 C229.278409,15.4772727 229.420455,14.6207386 229.704545,13.8849432 C229.988636,13.1491477 230.409091,12.5752841 230.965909,12.1633523 C231.522727,11.7514205 232.210227,11.5454545 233.028409,11.5454545 C233.880682,11.5454545 234.589489,11.7627841 235.15483,12.1974432 C235.72017,12.6321023 236.143466,13.2201705 236.424716,13.9616477 C236.705966,14.703125 236.846591,15.5340909 236.846591,16.4545455 C236.846591,17.3863636 236.703125,18.2315341 236.416193,18.9900568 C236.129261,19.7485795 235.703125,20.3508523 235.137784,20.796875 C234.572443,21.2428977 233.869318,21.4659091 233.028409,21.4659091 Z M247.414773,23.2727273 C248.301136,23.2727273 249.099432,23.1349432 249.809659,22.859375 C250.519886,22.5838068 251.116477,22.1974432 251.599432,21.7002841 C252.082386,21.203125 252.426136,20.625 252.630682,19.9659091 L252.630682,19.9659091 L250.6875,19.4204545 C250.517045,19.875 250.275568,20.2542614 249.963068,20.5582386 C249.650568,20.8622159 249.27983,21.0894886 248.850852,21.2400568 C248.421875,21.390625 247.943182,21.4659091 247.414773,21.4659091 C246.602273,21.4659091 245.889205,21.2883523 245.275568,20.9332386 C244.661932,20.578125 244.183239,20.0582386 243.839489,19.3735795 C243.495739,18.6889205 243.323864,17.8522727 243.323864,16.8636364 L243.329,17.137 L252.835227,17.1363636 L252.835227,16.2840909 C252.835227,15.0625 252.673295,14.0340909 252.349432,13.1988636 C252.025568,12.3636364 251.590909,11.6917614 251.045455,11.1832386 C250.5,10.6747159 249.894886,10.3068182 249.230114,10.0795455 C248.565341,9.85227273 247.892045,9.73863636 247.210227,9.73863636 C246.028409,9.73863636 244.995739,10.0269886 244.112216,10.6036932 C243.228693,11.1803977 242.541193,11.9815341 242.049716,13.0071023 C241.558239,14.0326705 241.3125,15.2159091 241.3125,16.5568182 C241.3125,17.8977273 241.558239,19.0724432 242.049716,20.0809659 C242.541193,21.0894886 243.242898,21.8735795 244.15483,22.4332386 C245.066761,22.9928977 246.153409,23.2727273 247.414773,23.2727273 Z M243.353161,15.171875 C243.411754,14.6477273 243.558239,14.1491477 243.792614,13.6761364 C244.105114,13.0454545 244.552557,12.5326705 245.134943,12.1377841 C245.71733,11.7428977 246.409091,11.5454545 247.210227,11.5454545 C247.9375,11.5454545 248.569602,11.7130682 249.106534,12.0482955 C249.643466,12.3835227 250.058239,12.8409091 250.350852,13.4204545 C250.643466,14 250.789773,14.6590909 250.789773,15.3977273 L250.789773,15.3977273 L243.334,15.398 L243.353161,15.171875 Z M257.914773,23 L257.914773,5.54545455 L255.903409,5.54545455 L255.903409,23 L257.914773,23 Z M266.914773,23.2727273 C268.096591,23.2727273 269.132102,22.9914773 270.021307,22.4289773 C270.910511,21.8664773 271.603693,21.0795455 272.100852,20.0681818 C272.598011,19.0568182 272.846591,17.875 272.846591,16.5227273 C272.846591,15.1590909 272.598011,13.96875 272.100852,12.9517045 C271.603693,11.9346591 270.910511,11.1448864 270.021307,10.5823864 C269.132102,10.0198864 268.096591,9.73863636 266.914773,9.73863636 C265.732955,9.73863636 264.697443,10.0198864 263.808239,10.5823864 C262.919034,11.1448864 262.225852,11.9346591 261.728693,12.9517045 C261.231534,13.96875 260.982955,15.1590909 260.982955,16.5227273 C260.982955,17.875 261.231534,19.0568182 261.728693,20.0681818 C262.225852,21.0795455 262.919034,21.8664773 263.808239,22.4289773 C264.697443,22.9914773 265.732955,23.2727273 266.914773,23.2727273 Z M266.914773,21.4659091 C266.017045,21.4659091 265.278409,21.2357955 264.698864,20.7755682 C264.119318,20.3153409 263.690341,19.7102273 263.411932,18.9602273 C263.133523,18.2102273 262.994318,17.3977273 262.994318,16.5227273 C262.994318,15.6477273 263.133523,14.8323864 263.411932,14.0767045 C263.690341,13.3210227 264.119318,12.7102273 264.698864,12.2443182 C265.278409,11.7784091 266.017045,11.5454545 266.914773,11.5454545 C267.8125,11.5454545 268.551136,11.7784091 269.130682,12.2443182 C269.710227,12.7102273 270.139205,13.3210227 270.417614,14.0767045 C270.696023,14.8323864 270.835227,15.6477273 270.835227,16.5227273 C270.835227,17.3977273 270.696023,18.2102273 270.417614,18.9602273 C270.139205,19.7102273 269.710227,20.3153409 269.130682,20.7755682 C268.551136,21.2357955 267.8125,21.4659091 266.914773,21.4659091 Z M280.414773,23 L283.278409,12.9431818 L283.482955,12.9431818 L286.346591,23 L288.323864,23 L292.3125,9.90909091 L290.198864,9.90909091 L287.369318,19.8977273 L287.232955,19.8977273 L284.471591,9.90909091 L282.323864,9.90909091 L279.528409,19.9318182 L279.392045,19.9318182 L276.5625,9.90909091 L274.448864,9.90909091 L278.4375,23 L280.414773,23 Z" id="Checkoutmyworkbelow" fill="#000000" fill-rule="nonzero"></path>
            </g>
        </g>
    </g>
</svg>