<?xml version="1.0" encoding="UTF-8"?>
<svg width="152px" height="30px" viewBox="0 0 152 30" version="1.1" xmlns="http://www.w3.org/2000/svg" xmlns:xlink="http://www.w3.org/1999/xlink">
    <title>Group 7</title>
    <g id="Mobile-Final" stroke="none" stroke-width="1" fill="none" fill-rule="evenodd">
        <g id="iPhone-11-Pro-Max" transform="translate(-131.000000, -2209.000000)">
            <g id="Group-7" transform="translate(131.000000, 2209.000000)">
                <rect id="Rectangle" fill="#FD828A" x="2" y="16" width="109" height="14"></rect>
                <path d="M12.3409091,23 L12.3409091,21.125 L4.22727273,21.125 L4.22727273,5.54545455 L2.11363636,5.54545455 L2.11363636,23 L12.3409091,23 Z M20.8295455,23.2727273 C21.7159091,23.2727273 22.5142045,23.1349432 23.2244318,22.859375 C23.9346591,22.5838068 24.53125,22.1974432 25.0142045,21.7002841 C25.4971591,21.203125 25.8409091,20.625 26.0454545,19.9659091 L26.0454545,19.9659091 L24.1022727,19.4204545 C23.9318182,19.875 23.6903409,20.2542614 23.3778409,20.5582386 C23.0653409,20.8622159 22.6946023,21.0894886 22.265625,21.2400568 C21.8366477,21.390625 21.3579545,21.4659091 20.8295455,21.4659091 C20.0170455,21.4659091 19.3039773,21.2883523 18.6903409,20.9332386 C18.0767045,20.578125 17.5980114,20.0582386 17.2542614,19.3735795 C16.9105114,18.6889205 16.7386364,17.8522727 16.7386364,16.8636364 L16.744,17.137 L26.25,17.1363636 L26.25,16.2840909 C26.25,15.0625 26.0880682,14.0340909 25.7642045,13.1988636 C25.4403409,12.3636364 25.0056818,11.6917614 24.4602273,11.1832386 C23.9147727,10.6747159 23.3096591,10.3068182 22.6448864,10.0795455 C21.9801136,9.85227273 21.3068182,9.73863636 20.625,9.73863636 C19.4431818,9.73863636 18.4105114,10.0269886 17.5269886,10.6036932 C16.6434659,11.1803977 15.9559659,11.9815341 15.4644886,13.0071023 C14.9730114,14.0326705 14.7272727,15.2159091 14.7272727,16.5568182 C14.7272727,17.8977273 14.9730114,19.0724432 15.4644886,20.0809659 C15.9559659,21.0894886 16.6576705,21.8735795 17.5696023,22.4332386 C18.4815341,22.9928977 19.5681818,23.2727273 20.8295455,23.2727273 Z M16.7679332,15.171875 C16.826527,14.6477273 16.9730114,14.1491477 17.2073864,13.6761364 C17.5198864,13.0454545 17.9673295,12.5326705 18.5497159,12.1377841 C19.1321023,11.7428977 19.8238636,11.5454545 20.625,11.5454545 C21.3522727,11.5454545 21.984375,11.7130682 22.5213068,12.0482955 C23.0582386,12.3835227 23.4730114,12.8409091 23.765625,13.4204545 C24.0582386,14 24.2045455,14.6590909 24.2045455,15.3977273 L24.2045455,15.3977273 L16.748,15.398 L16.7679332,15.171875 Z M33.75,23.1704545 C34.125,23.1704545 34.4346591,23.1434659 34.6789773,23.0894886 C34.9232955,23.0355114 35.1136364,22.9829545 35.25,22.9318182 L35.25,22.9318182 L34.8409091,21.125 C34.7556818,21.1420455 34.6420455,21.1633523 34.5,21.1889205 C34.3579545,21.2144886 34.1761364,21.2272727 33.9545455,21.2272727 C33.6590909,21.2272727 33.3792614,21.1803977 33.1150568,21.0866477 C32.8508523,20.9928977 32.6349432,20.8053977 32.4673295,20.5241477 C32.2997159,20.2428977 32.2159091,19.8181818 32.2159091,19.25 L32.2159091,19.25 L32.215,11.614 L35.0113636,11.6136364 L35.0113636,9.90909091 L32.215,9.91 L32.2159091,6.77272727 L30.2045455,6.77272727 L30.204,9.91 L28.2272727,9.90909091 L28.2272727,11.6136364 L30.204,11.614 L30.2045455,19.7954545 C30.2045455,20.4722222 30.3448373,21.0457351 30.6254209,21.5159933 L30.7372159,21.6875 C31.0923295,22.1875 31.5411932,22.5596591 32.0838068,22.8039773 C32.6264205,23.0482955 33.1818182,23.1704545 33.75,23.1704545 Z M42.2045455,23.2727273 C43.2215909,23.2727273 44.1136364,23.1022727 44.8806818,22.7613636 C45.6477273,22.4204545 46.2457386,21.9545455 46.6747159,21.3636364 C47.1036932,20.7727273 47.3181818,20.1022727 47.3181818,19.3522727 C47.3181818,18.4375 47.03125,17.6889205 46.4573864,17.1065341 C45.8835227,16.5241477 45.0113636,16.0909091 43.8409091,15.8068182 L43.8409091,15.8068182 L41.8977273,15.3295455 C41.125,15.1363636 40.5568182,14.8948864 40.1931818,14.6051136 C39.8295455,14.3153409 39.6477273,13.9204545 39.6477273,13.4204545 C39.6477273,12.8579545 39.9133523,12.3934659 40.4446023,12.0269886 C40.9758523,11.6605114 41.6420455,11.4772727 42.4431818,11.4772727 C43.0284091,11.4772727 43.5085227,11.5710227 43.8835227,11.7585227 C44.2585227,11.9460227 44.5553977,12.1832386 44.7741477,12.4701705 C44.9928977,12.7571023 45.1590909,13.0511364 45.2727273,13.3522727 L45.2727273,13.3522727 L47.0795455,12.8409091 C46.7670455,11.9090909 46.2400568,11.1590909 45.4985795,10.5909091 C44.7571023,10.0227273 43.7386364,9.73863636 42.4431818,9.73863636 C41.5227273,9.73863636 40.7002841,9.90056818 39.9758523,10.2244318 C39.2514205,10.5482955 38.6803977,10.9943182 38.2627841,11.5625 C37.8451705,12.1306818 37.6363636,12.7840909 37.6363636,13.5227273 C37.6363636,14.4261364 37.9161932,15.1775568 38.4758523,15.7769886 C39.0355114,16.3764205 39.9147727,16.8181818 41.1136364,17.1022727 L41.1136364,17.1022727 L43.2954545,17.6136364 C43.9545455,17.7670455 44.4431818,17.9985795 44.7613636,18.3082386 C45.0795455,18.6178977 45.2386364,19 45.2386364,19.4545455 C45.2386364,20.0170455 44.9616477,20.4985795 44.4076705,20.8991477 C43.8536932,21.2997159 43.1079545,21.5 42.1704545,21.5 C41.3465909,21.5 40.6803977,21.3238636 40.171875,20.9715909 C39.6633523,20.6193182 39.3181818,20.0909091 39.1363636,19.3863636 L39.1363636,19.3863636 L37.2272727,19.8636364 C37.4602273,20.9772727 38.0142045,21.8238636 38.8892045,22.4034091 C39.7642045,22.9829545 40.8693182,23.2727273 42.2045455,23.2727273 Z M64.3977273,23.2386364 C65.2784091,23.2386364 66.1065341,23.1107955 66.8821023,22.8551136 C67.6576705,22.5994318 68.3579545,22.2258523 68.9829545,21.734375 C69.6079545,21.2428977 70.1306818,20.6448864 70.5511364,19.9403409 C70.9715909,19.2357955 71.2613636,18.4375 71.4204545,17.5454545 L71.4204545,17.5454545 L69.3068182,17.5454545 C69.1818182,18.1477273 68.9644886,18.6803977 68.6548295,19.1434659 C68.3451705,19.6065341 67.9701705,19.9957386 67.5298295,20.3110795 C67.0894886,20.6264205 66.6022727,20.8636364 66.0681818,21.0227273 C65.5340909,21.1818182 64.9772727,21.2613636 64.3977273,21.2613636 C63.3409091,21.2613636 62.3849432,20.9943182 61.5298295,20.4602273 C60.6747159,19.9261364 59.9957386,19.1392045 59.4928977,18.0994318 C58.9900568,17.0596591 58.7386364,15.7840909 58.7386364,14.2727273 C58.7386364,12.7613636 58.9900568,11.4857955 59.4928977,10.4460227 C59.9957386,9.40625 60.6747159,8.61931818 61.5298295,8.08522727 C62.3849432,7.55113636 63.3409091,7.28409091 64.3977273,7.28409091 C64.9772727,7.28409091 65.5340909,7.36363636 66.0681818,7.52272727 C66.6022727,7.68181818 67.0894886,7.91903409 67.5298295,8.234375 C67.9701705,8.54971591 68.3451705,8.9375 68.6548295,9.39772727 C68.9644886,9.85795455 69.1818182,10.3920455 69.3068182,11 L69.3068182,11 L71.4204545,11 C71.2613636,10.1022727 70.9715909,9.30255682 70.5511364,8.60085227 C70.1306818,7.89914773 69.6079545,7.30255682 68.9829545,6.81107955 C68.3579545,6.31960227 67.6576705,5.94602273 66.8821023,5.69034091 C66.1065341,5.43465909 65.2784091,5.30681818 64.3977273,5.30681818 C62.9090909,5.30681818 61.5852273,5.67045455 60.4261364,6.39772727 C59.2670455,7.125 58.3551136,8.15909091 57.6903409,9.5 C57.0255682,10.8409091 56.6931818,12.4318182 56.6931818,14.2727273 C56.6931818,16.1136364 57.0255682,17.7045455 57.6903409,19.0454545 C58.3551136,20.3863636 59.2670455,21.4204545 60.4261364,22.1477273 C61.5852273,22.875 62.9090909,23.2386364 64.3977273,23.2386364 Z M79.875,23.2727273 C81.0568182,23.2727273 82.0923295,22.9914773 82.9815341,22.4289773 C83.8707386,21.8664773 84.5639205,21.0795455 85.0610795,20.0681818 C85.5582386,19.0568182 85.8068182,17.875 85.8068182,16.5227273 C85.8068182,15.1590909 85.5582386,13.96875 85.0610795,12.9517045 C84.5639205,11.9346591 83.8707386,11.1448864 82.9815341,10.5823864 C82.0923295,10.0198864 81.0568182,9.73863636 79.875,9.73863636 C78.6931818,9.73863636 77.6576705,10.0198864 76.7684659,10.5823864 C75.8792614,11.1448864 75.1860795,11.9346591 74.6889205,12.9517045 C74.1917614,13.96875 73.9431818,15.1590909 73.9431818,16.5227273 C73.9431818,17.875 74.1917614,19.0568182 74.6889205,20.0681818 C75.1860795,21.0795455 75.8792614,21.8664773 76.7684659,22.4289773 C77.6576705,22.9914773 78.6931818,23.2727273 79.875,23.2727273 Z M79.875,21.4659091 C78.9772727,21.4659091 78.2386364,21.2357955 77.6590909,20.7755682 C77.0795455,20.3153409 76.6505682,19.7102273 76.3721591,18.9602273 C76.09375,18.2102273 75.9545455,17.3977273 75.9545455,16.5227273 C75.9545455,15.6477273 76.09375,14.8323864 76.3721591,14.0767045 C76.6505682,13.3210227 77.0795455,12.7102273 77.6590909,12.2443182 C78.2386364,11.7784091 78.9772727,11.5454545 79.875,11.5454545 C80.7727273,11.5454545 81.5113636,11.7784091 82.0909091,12.2443182 C82.6704545,12.7102273 83.0994318,13.3210227 83.3778409,14.0767045 C83.65625,14.8323864 83.7954545,15.6477273 83.7954545,16.5227273 C83.7954545,17.3977273 83.65625,18.2102273 83.3778409,18.9602273 C83.0994318,19.7102273 82.6704545,20.3153409 82.0909091,20.7755682 C81.5113636,21.2357955 80.7727273,21.4659091 79.875,21.4659091 Z M90.8863636,23 L90.8863636,15.125 C90.8863636,14.3636364 91.03125,13.7159091 91.3210227,13.1818182 C91.6107955,12.6477273 92.0071023,12.2414773 92.5099432,11.9630682 C93.0127841,11.6846591 93.5852273,11.5454545 94.2272727,11.5454545 C95.1590909,11.5454545 95.8920455,11.8338068 96.4261364,12.4105114 C96.9602273,12.9872159 97.2272727,13.7897727 97.2272727,14.8181818 L97.2272727,14.8181818 L97.2272727,23 L99.2386364,23 L99.2386364,14.6818182 C99.2386364,13.5681818 99.0539773,12.6463068 98.6846591,11.9161932 C98.3153409,11.1860795 97.7982955,10.640625 97.1335227,10.2798295 C96.46875,9.91903409 95.6931818,9.73863636 94.8068182,9.73863636 C93.8181818,9.73863636 93.0113636,9.94176136 92.3863636,10.3480114 C91.7613636,10.7542614 91.2954545,11.2897727 90.9886364,11.9545455 L90.9886364,11.9545455 L90.8181818,11.9545455 L90.8181818,9.90909091 L88.875,9.90909091 L88.875,23 L90.8863636,23 Z M104.931818,23 L104.931818,15.125 C104.931818,14.3636364 105.076705,13.7159091 105.366477,13.1818182 C105.65625,12.6477273 106.052557,12.2414773 106.555398,11.9630682 C107.058239,11.6846591 107.630682,11.5454545 108.272727,11.5454545 C109.204545,11.5454545 109.9375,11.8338068 110.471591,12.4105114 C111.005682,12.9872159 111.272727,13.7897727 111.272727,14.8181818 L111.272727,14.8181818 L111.272727,23 L113.284091,23 L113.284091,14.6818182 C113.284091,13.5681818 113.099432,12.6463068 112.730114,11.9161932 C112.360795,11.1860795 111.84375,10.640625 111.178977,10.2798295 C110.514205,9.91903409 109.738636,9.73863636 108.852273,9.73863636 C107.863636,9.73863636 107.056818,9.94176136 106.431818,10.3480114 C105.806818,10.7542614 105.340909,11.2897727 105.034091,11.9545455 L105.034091,11.9545455 L104.863636,11.9545455 L104.863636,9.90909091 L102.920455,9.90909091 L102.920455,23 L104.931818,23 Z M122.454545,23.2727273 C123.340909,23.2727273 124.139205,23.1349432 124.849432,22.859375 C125.559659,22.5838068 126.15625,22.1974432 126.639205,21.7002841 C127.122159,21.203125 127.465909,20.625 127.670455,19.9659091 L127.670455,19.9659091 L125.727273,19.4204545 C125.556818,19.875 125.315341,20.2542614 125.002841,20.5582386 C124.690341,20.8622159 124.319602,21.0894886 123.890625,21.2400568 C123.461648,21.390625 122.982955,21.4659091 122.454545,21.4659091 C121.642045,21.4659091 120.928977,21.2883523 120.315341,20.9332386 C119.701705,20.578125 119.223011,20.0582386 118.879261,19.3735795 C118.535511,18.6889205 118.363636,17.8522727 118.363636,16.8636364 L118.369,17.137 L127.875,17.1363636 L127.875,16.2840909 C127.875,15.0625 127.713068,14.0340909 127.389205,13.1988636 C127.065341,12.3636364 126.630682,11.6917614 126.085227,11.1832386 C125.539773,10.6747159 124.934659,10.3068182 124.269886,10.0795455 C123.605114,9.85227273 122.931818,9.73863636 122.25,9.73863636 C121.068182,9.73863636 120.035511,10.0269886 119.151989,10.6036932 C118.268466,11.1803977 117.580966,11.9815341 117.089489,13.0071023 C116.598011,14.0326705 116.352273,15.2159091 116.352273,16.5568182 C116.352273,17.8977273 116.598011,19.0724432 117.089489,20.0809659 C117.580966,21.0894886 118.28267,21.8735795 119.194602,22.4332386 C120.106534,22.9928977 121.193182,23.2727273 122.454545,23.2727273 Z M118.392933,15.171875 C118.451527,14.6477273 118.598011,14.1491477 118.832386,13.6761364 C119.144886,13.0454545 119.59233,12.5326705 120.174716,12.1377841 C120.757102,11.7428977 121.448864,11.5454545 122.25,11.5454545 C122.977273,11.5454545 123.609375,11.7130682 124.146307,12.0482955 C124.683239,12.3835227 125.098011,12.8409091 125.390625,13.4204545 C125.683239,14 125.829545,14.6590909 125.829545,15.3977273 L125.829545,15.3977273 L118.373,15.398 L118.392933,15.171875 Z M136.261364,23.2727273 C137.227273,23.2727273 138.075284,23.0923295 138.805398,22.7315341 C139.535511,22.3707386 140.12358,21.8821023 140.569602,21.265625 C141.015625,20.6491477 141.295455,19.9545455 141.409091,19.1818182 L141.409091,19.1818182 L139.397727,19.1818182 C139.272727,19.6590909 139.0625,20.0681818 138.767045,20.4090909 C138.471591,20.75 138.110795,21.0113636 137.684659,21.1931818 C137.258523,21.375 136.784091,21.4659091 136.261364,21.4659091 C135.465909,21.4659091 134.774148,21.2585227 134.18608,20.84375 C133.598011,20.4289773 133.143466,19.8465909 132.822443,19.0965909 C132.50142,18.3465909 132.340909,17.4659091 132.340909,16.4545455 C132.340909,15.4659091 132.504261,14.6036932 132.830966,13.8678977 C133.15767,13.1321023 133.615057,12.5610795 134.203125,12.1548295 C134.791193,11.7485795 135.477273,11.5454545 136.261364,11.5454545 C137.147727,11.5454545 137.853693,11.7769886 138.379261,12.2400568 C138.90483,12.703125 139.244318,13.2329545 139.397727,13.8295455 L139.397727,13.8295455 L141.409091,13.8295455 C141.295455,13.0113636 141.002841,12.2954545 140.53125,11.6818182 C140.059659,11.0681818 139.454545,10.5909091 138.715909,10.25 C137.977273,9.90909091 137.147727,9.73863636 136.227273,9.73863636 C135.045455,9.73863636 134.012784,10.0269886 133.129261,10.6036932 C132.245739,11.1803977 131.558239,11.9786932 131.066761,12.9985795 C130.575284,14.0184659 130.329545,15.1931818 130.329545,16.5227273 C130.329545,17.8295455 130.568182,18.9914773 131.045455,20.0085227 C131.522727,21.0255682 132.204545,21.8238636 133.090909,22.4034091 C133.977273,22.9829545 135.034091,23.2727273 136.261364,23.2727273 Z M148.772727,23.1704545 C149.147727,23.1704545 149.457386,23.1434659 149.701705,23.0894886 C149.946023,23.0355114 150.136364,22.9829545 150.272727,22.9318182 L150.272727,22.9318182 L149.863636,21.125 C149.778409,21.1420455 149.664773,21.1633523 149.522727,21.1889205 C149.380682,21.2144886 149.198864,21.2272727 148.977273,21.2272727 C148.681818,21.2272727 148.401989,21.1803977 148.137784,21.0866477 C147.87358,20.9928977 147.65767,20.8053977 147.490057,20.5241477 C147.322443,20.2428977 147.238636,19.8181818 147.238636,19.25 L147.238636,19.25 L147.238,11.614 L150.034091,11.6136364 L150.034091,9.90909091 L147.238,9.91 L147.238636,6.77272727 L145.227273,6.77272727 L145.227,9.91 L143.25,9.90909091 L143.25,11.6136364 L145.227,11.614 L145.227273,19.7954545 C145.227273,20.4722222 145.367565,21.0457351 145.648148,21.5159933 L145.759943,21.6875 C146.115057,22.1875 146.56392,22.5596591 147.106534,22.8039773 C147.649148,23.0482955 148.204545,23.1704545 148.772727,23.1704545 Z" id="LetsConnect" fill="#000000" fill-rule="nonzero"></path>
            </g>
        </g>
    </g>
</svg>